<?xml version="1.0" encoding="UTF-8"?>
<svg xmlns="http://www.w3.org/2000/svg" viewBox="0 0 810.54 148.88">
  <defs>
    <style>
      .cls-1 {
        fill: #00a8d9;
      }

      .cls-1, .cls-2 {
        stroke-width: 0px;
      }

      .cls-2 {
        fill: #07a8d9;
      }
    </style>
  </defs>
  <g id="MAS_QUE_VACACIONES" data-name="MAS QUE VACACIONES">
    <path id="S2" class="cls-1" d="M499.7,89.92c4.74,0,10.09,2.93,11.33,3.69.8.49,2.15,1.49,3.18,2.36,1.35,1.13,2.22,2.18,2.22,2.18l-5.9,5.29s-.69-.64-1.9-1.67c-3.78-3.22-7.17-4.5-11.55-3.61-2.5.51-5.21,2.96-5.59,5.84-.36,2.73,1.47,5.43,3.84,6.67,4.6,2.4,8.37,3.78,12.93,6.26,8.53,4.64,11.71,12.28,9.74,19.78-1.99,7.57-8.89,11.59-16.85,11.59s-12.7-1.7-16.56-6.53c-2.21-2.76-3.86-6.51-3.86-6.51l7.03-2.09s.17.51.83,1.69c1.96,3.51,5.02,5.56,8.98,6.06,5.02.64,9.99.03,12.21-4.79,2.17-4.72-.43-8.92-4.56-11.34-3.99-2.34-7.89-3.52-12.02-5.65-7.97-4.12-11.64-11.21-10-17.33,1.82-6.82,7.92-11.84,16.51-11.9Z"/>
    <path id="E2" class="cls-2" d="M442.37,119.14c0-7.15-.14-29.3-.14-29.3h32.73v7.86s-24.09,0-24.09,0v16.1s22.17.02,22.17.02l.03,7.66-22.19-.05v19.63h24.12v7.82h-32.76s.14-22.6.14-29.74Z"/>
    <path id="N" class="cls-1" d="M424.07,130.25c0-12.58.05-40.43.05-40.43l8.24.1s0,40.01,0,58.38c-14.77-13.64-41.34-40.28-41.34-40.28v40.28h-7.96s.02-40.68.02-58.38c14.79,13.69,25.63,26.11,41,40.33Z"/>
    <path id="O" class="cls-1" d="M342.51,89.92h-1c-19.37.14-32.16,14.59-30.73,31.58,1.3,15.55,14.82,27.18,31.23,26.79,16.41.38,29.93-11.25,31.23-26.79,1.43-16.99-11.36-31.44-30.74-31.58ZM351.16,138.4c-1.22.49-2.43.9-3.64,1.21-11.74,3.03-22.96-2.34-26.83-12.94-4.04-11.07,2.69-23.63,12.7-26.9,2.92-.96,5.83-1.45,8.62-1.49,2.79.05,5.7.53,8.62,1.49,10.01,3.28,16.74,15.84,12.7,26.9-1.92,5.25-6.53,9.31-12.12,11.71-.02,0-.03.02-.05.02Z"/>
    <rect id="I" class="cls-1" x="292.9" y="89.92" width="8.87" height="58.33"/>
    <path id="C2" class="cls-1" d="M284.71,135.82c.04,3.41,0,8.58,0,8.58,0,0-4.31,1.85-6.55,2.46-22.75,6.22-42.21-8.48-41.62-29.54.52-18.5,20.4-31.13,41.64-26.41,2.13.47,6.55,2.63,6.55,2.63l.03,8.55s-1.93-1.16-4.14-2.01c-3.61-1.4-6.61-1.99-10.51-2.1-9.9-.29-18.04,3.01-22.77,11.65-3.74,6.83-3.47,14.07,1.46,20.43,6.2,8,14.94,10.67,24.88,9.44,4.03-.5,7.43-1.73,11.03-3.69Z"/>
    <path id="A3" class="cls-1" d="M178.57,148.3s18.12-38.54,27.57-58.38c9.18,19.12,27.65,58.38,27.65,58.38h-10.57l-6.36-14.34-21.37-.05-6.5,14.39h-10.42ZM198.5,126.84h15.67l-7.93-18.09s-4.54,11.37-7.74,18.09Z"/>
    <path id="C1" class="cls-1" d="M175.77,135.82c.04,3.41,0,8.58,0,8.58,0,0-4.31,1.85-6.55,2.46-22.75,6.22-42.21-8.48-41.62-29.54.52-18.5,20.4-31.13,41.64-26.41,2.13.47,6.55,2.63,6.55,2.63l.03,8.55s-1.93-1.16-4.14-2.01c-3.61-1.4-6.61-1.99-10.51-2.1-9.9-.29-18.04,3.01-22.77,11.65-3.74,6.83-3.47,14.07,1.46,20.43,6.2,8,14.94,10.67,24.88,9.44,4.03-.5,7.43-1.73,11.03-3.69Z"/>
    <path id="A2" class="cls-1" d="M68.64,148.3s18.12-38.54,27.57-58.38c9.18,19.12,27.65,58.38,27.65,58.38h-10.57l-6.36-14.34-21.37-.05-6.5,14.39h-10.42ZM88.57,126.84h15.67l-7.93-18.09s-4.54,11.37-7.74,18.09Z"/>
    <path id="V" class="cls-1" d="M68.31,89.92s-17.41,38.61-26.81,58.38c-9.39-19.77-26.81-58.38-26.81-58.38h8.27l18.54,40.27,18.54-40.27h8.26Z"/>
    <path id="E1" class="cls-2" d="M485.94,44.6c0-7.15-.14-29.3-.14-29.3h32.73v7.86s-24.09,0-24.09,0v16.1s22.17.02,22.17.02l.03,7.66-22.19-.05v19.63h24.12v7.82h-32.76s.14-22.6.14-29.74Z"/>
    <path id="U" class="cls-1" d="M478.34,38.64c0,4.38.05,8.76,0,13.14-.17,13.22-7.22,21-20.25,22.39-12.99,1.38-22.13-5.53-23.57-17.78-1.41-11.89-.87-41.12-.87-41.12l8.43.02s-.26,25.94,0,35.79c.29,11,4.92,16.61,15.71,15.44,7.48-.81,11.94-5.35,12.1-13,.21-10.13.07-38.22.07-38.22,0,0,2.3.03,4.17,0,1.97-.02,4.22,0,4.22,0,0,0-.02,18.12-.02,23.33Z"/>
    <path id="Q" class="cls-1" d="M417.29,66.72c5.58-4.84,9.27-11.69,9.92-19.53,1.43-17.16-11.36-31.75-30.74-31.89h-1c-19.37.14-32.16,14.73-30.73,31.89,1.3,15.7,14.82,27.44,31.23,27.06,5.14.12,10-.95,14.29-2.96l5.54,5.97h11.51l-10.03-10.54ZM401.48,64.98c-11.74,3.03-22.96-2.34-26.83-12.94-4.04-11.07,2.69-23.63,12.7-26.9,2.92-.96,5.83-1.45,8.62-1.49,2.79.05,5.7.53,8.62,1.49,10.01,3.28,16.74,15.84,12.7,26.9-1.18,3.22-3.36,5.99-6.17,8.2l-7.44-7.82h-10.91l10.99,11.86c-.77.27-1.53.5-2.29.7Z"/>
    <path id="S1" class="cls-1" d="M321.1,15.3c4.74,0,10.09,2.95,11.33,3.73.8.5,2.15,1.51,3.18,2.38,1.35,1.14,2.22,2.2,2.22,2.2l-5.9,5.34s-.69-.65-1.9-1.69c-3.78-3.25-7.17-4.54-11.55-3.65-2.5.51-5.21,2.98-5.59,5.89-.36,2.76,1.47,5.48,3.84,6.73,4.6,2.43,8.37,3.81,12.93,6.31,8.53,4.68,11.71,12.39,9.74,19.97-1.99,7.64-8.89,11.7-16.85,11.7s-12.7-1.72-16.56-6.59c-2.21-2.79-3.86-6.57-3.86-6.57l7.03-2.11s.17.51.83,1.71c1.96,3.54,5.02,5.61,8.98,6.12,5.02.65,9.99.03,12.21-4.83,2.17-4.76-.43-9-4.56-11.45-3.99-2.36-7.89-3.55-12.02-5.7-7.97-4.16-11.64-11.31-10-17.49,1.82-6.88,7.92-11.95,16.51-12.01Z"/>
    <polygon id="Tilde" class="cls-1" points="269.45 11.94 275.84 0 285.73 0 276 11.94 269.45 11.94"/>
    <path id="MA" class="cls-1" d="M274.37,15.3l-26.46,56.16-14.91-56.16-17.7,41.38-17.7-41.38-15.62,58.92h7.76s9.29-35.27,9.29-35.27l16.27,36.36,16.27-36.36,9.29,35.27h16.1s6.16-14.29,6.16-14.29h22.51l6.16,14.29h10.35l-27.76-58.92ZM266.43,52.21l7.93-18.42,7.93,18.42h-15.86Z"/>
  </g>
  <g id="LOGO">
    <path class="cls-1" d="M632.18,30.82c5.73-4.29,14.04-8.78,24.11-8.43,15.53.54,26.05,7.07,34.31,18.37,11.99,16.42,9.62,39.82,9.62,39.82,0,0,9.9-3.64,22.56-.46,4.48,1.12,8.69,3.29,11.8,6.03,3.65,3.23,5.98,8.52,5.98,8.52,0,0,4.51-3.64,10.3-4.56,3.8-.61,8.87-.46,13.38,1.49,5.79,2.5,10.41,7.95,12.35,14.2,1.18,3.79,3.07,16.22-6.61,25.06,18.37-13.68,11.54-31.83,4.3-39.58-7.52-8.05-16.55-10.86-27.25-7.35-2.33.76-6.23,3.88-6.23,3.88,0,0-2.29-3.39-3.82-5.14-7.29-8.31-17.79-10.7-28.76-8.7-.14.03-.35.08-.35.08,0,0,.07-.27.09-.42.32-2.47,2.31-17.98-4.05-30.82-5.5-11.1-17.93-20.41-26.14-23.68-15.99-6.35-34.23-3.97-47.59,7.13-3.21,2.63-8.47,8.26-11.34,13.78-4.43,8.51-5.48,19.17-5.48,19.17,0,0-13.84-8.75-25.27-2.31-13.22,7.46-8.61,24.39-8.61,24.39,0,0-5.68-.14-13.61,2.66-12.56,4.23-21.36,15.09-19.81,30.39,1.47,14.47,11.58,26.03,20.5,29.72,14.79,6.12,42.02,7.78,57.89-10.38,3.93-4.5,10.79-11.3,16.48-13.76,4.22-1.58,3.79-2.25.85-3.97-.39-.42-4.13-.37-3.92-.03-5,2.66-14.26,9.48-17.71,12.68-13.03,12.14-28.57,14.94-44.77,7.89-14.38-6.26-17.34-19.04-15.4-28.72,2.87-14.28,14.41-20.27,28.65-21.37-6.48-8.05-3.48-19.47,1.86-22.89,9.29-5.96,19.54-2.17,26.81,3.98-.57-14.25,5.26-29.43,14.86-36.69Z"/>
    <path class="cls-1" d="M632.74,110.32c1.47,1.7,7.05,8.04,9.77,9.83,3.15,2.08,10.69.08,13.53-.69,2.36-.64,9.6-3.98,11.99-5.1.09-.04.4-.14.58-.06s.18.37.18.49c-.14,2.77-.81,12.71-1.67,24.44-.02.24-.07.95.19,1.11.3.18.94-.23,1.27-.39,1.78-.9,4.47-2.28,4.99-2.72.16-.13.54-.16,1.31-3.16s8.27-25.83,8.96-26.71c.53-.57,13.83-7.03,16.57-8.8,1.55-1,3.04-4.15,1.08-6.3-2.66-2.92-12.15.23-15.61,1.75-3.47,1.52-9.02,4.72-10.15,4.68s-10.17-3.93-14.05-4.81c-3.09-.7-6.64,1.63-7.96,2.62-.09.07-.28.24-.25.46.02.18.3.36.3.36l9.43,6.65s.34.26.31.37-.26.25-.26.25l-13.76,6.71s-.54.31-.78.3c-.24,0-.36,0-.89-.16-1.86-.58-6.46-2.01-10.12-3.08-2.13-.62-4.11.63-4.91,1.24-.06.05-.2.16-.2.32,0,.18.11.33.18.41Z"/>
  </g>
</svg>